{
  "accessors": [
    {
      "bufferView": 2,
      "componentType": 5126,
      "count": 2214,
      "max": [
        0.7370114922523499,
        0.5204641222953796,
        0.1313951313495636
      ],
      "min": [
        -0.3953719437122345,
        -0.5265429019927979,
        -0.131395161151886
      ],
      "type": "VEC3"
    },
    {
      "bufferView": 2,
      "byteOffset": 26568,
      "componentType": 5126,
      "count": 2214,
      "max": [
        0.9999992251396179,
        0.9864802360534668,
        1.0
      ],
      "min": [
        -0.9999992251396179,
        -0.9999483227729797,
        -1.0
      ],
      "type": "VEC3"
    },
    {
      "bufferView": 1,
      "componentType": 5126,
      "count": 2214,
      "max": [
        0.9786288738250732,
        0.9877575635910034
      ],
      "min": [
        0.04237350821495056,
        0.1474255621433258
      ],
      "type": "VEC2"
    },
    {
      "bufferView": 0,
      "componentType": 5125,
      "count": 3480,
      "type": "SCALAR"
    }
  ],
  "asset": {
    "extras": {
      "author": "ouz209 (https://sketchfab.com/ouz209)",
      "license": "CC-BY-4.0 (http://creativecommons.org/licenses/by/4.0/)",
      "source": "https://sketchfab.com/3d-models/low-poly-dogfree-download-1a8537532c34412182652cbd392d9d0a",
      "title": "Low Poly Dog(Free Download)"
    },
    "generator": "Sketchfab-12.68.0",
    "version": "2.0"
  },
  "bufferViews": [
    {
      "buffer": 0,
      "byteLength": 13920,
      "name": "floatBufferViews",
      "target": 34963
    },
    {
      "buffer": 0,
      "byteLength": 17712,
      "byteOffset": 13920,
      "byteStride": 8,
      "name": "floatBufferViews",
      "target": 34962
    },
    {
      "buffer": 0,
      "byteLength": 53136,
      "byteOffset": 31632,
      "byteStride": 12,
      "name": "floatBufferViews",
      "target": 34962
    }
  ],
  "buffers": [
    {
      "byteLength": 84768,
      "uri": "scene.bin"
    }
  ],
  "materials": [
    {
      "doubleSided": true,
      "name": "Scene_-_Root",
      "pbrMetallicRoughness": {
        "baseColorFactor": [
          0.2953043464009595,
          0.23231354734757323,
          0.008873891843667622,
          1.0
        ],
        "metallicFactor": 0.0,
        "roughnessFactor": 0.6
      }
    }
  ],
  "meshes": [
    {
      "name": "Plane__0",
      "primitives": [
        {
          "attributes": {
            "NORMAL": 1,
            "POSITION": 0,
            "TEXCOORD_0": 2
          },
          "indices": 3,
          "material": 0,
          "mode": 4
        }
      ]
    }
  ],
  "nodes": [
    {
      "children": [
        1
      ],
      "matrix": [
        1.0,
        0.0,
        0.0,
        0.0,
        0.0,
        2.220446049250313e-16,
        -1.0,
        0.0,
        0.0,
        1.0,
        2.220446049250313e-16,
        0.0,
        0.0,
        0.0,
        0.0,
        1.0
      ],
      "name": "Sketchfab_model"
    },
    {
      "children": [
        2
      ],
      "matrix": [
        1.0,
        0.0,
        0.0,
        0.0,
        0.0,
        0.0,
        1.0,
        0.0,
        0.0,
        -1.0,
        0.0,
        0.0,
        0.0,
        0.0,
        0.0,
        1.0
      ],
      "name": "1ee9ac954f7245c0a6d8f45c0e1b98c0.fbx"
    },
    {
      "children": [
        3
      ],
      "name": "RootNode"
    },
    {
      "children": [
        4
      ],
      "name": "Plane"
    },
    {
      "mesh": 0,
      "name": "Plane__0"
    }
  ],
  "scene": 0,
  "scenes": [
    {
      "name": "Sketchfab_Scene",
      "nodes": [
        0
      ]
    }
  ]
}
